# xmcd
#
# Track frame offsets:
#  150
#  13228
#  24353
#  37383
#  46350
#  59549
#  74081
#  82686
#  94050
#  107401
#  118138
#  131038
#  144373
#  156400
#  168604
#  181908
#
# Disc length: 2538 seconds
#
# Revision: 0
# Processed by: cddbd v1.5.2PL0 Copyright (c) Steve Scherf et al.
# Submitted via: AltoMP3_Maker 3.0
#
DISCID=e309e810
DTITLE=Various Artist - Country Classics Vol15
DYEAR=1900
DGENRE=
TTITLE0=Hey Good Lookin'
TTITLE1=Answer Me
TTITLE2=The Ballard Of Davy Crockett
TTITLE3=Cool Water
TTITLE4=Shine On Ruby Mountain
TTITLE5=Searching For A Soldiers Grave
TTITLE6=Big Rock Candy Mountain
TTITLE7=Boogie Blues
TTITLE8=I Haven't Got A Pot To Cook In
TTITLE9=Starlight Waltz
TTITLE10=Too Old To Cut The Mustard
TTITLE11=Springtime On The Range
TTITLE12=Curly Headed Baby
TTITLE13=John's Reply
TTITLE14=Westphalia Waltz
TTITLE15=Hold Everything (Til I Get Home)
EXTD=
EXTT0=
EXTT1=
EXTT2=
EXTT3=
EXTT4=
EXTT5=
EXTT6=
EXTT7=
EXTT8=
EXTT9=
EXTT10=
EXTT11=
EXTT12=
EXTT13=
EXTT14=
EXTT15=
PLAYORDER=
